# xmcd
#
# Track frame offsets:
#	150
#	30529
#	68683
#	91770
#	120392
#	151798
#	179184
#	200946
#	221372
#	243794
#	262235
#	280729
#	301211
#
# Disc length: 4214 seconds
#
# Revision: 3
# Processed by: cddbd v1.5.2PL0 Copyright (c) Steve Scherf et al.
# Submitted via: EasyCDDAExtractor 16.0.8.2
#
DISCID=b210740d
DTITLE=Άνευ ερμηνευτού - Jazz collection 09-Eddie Costa
DYEAR=1958
DGENRE=Ξένη jazz
TTITLE0=Guys and dolls
TTITLE1=Adelaide
TTITLE2=If I were a bell
TTITLE3=Luck be a lady
TTITLE4=I' ve never been in love before
TTITLE5=I 'll know
TTITLE6=Get out of the road
TTITLE7=In your own sweet way
TTITLE8=Big Ben
TTITLE9=Nature boy
TTITLE10=Blues plus eight
TTITLE11=I didn't know what time it was
TTITLE12=Stretch in "F"
EXTD=
EXTT0=
EXTT1=
EXTT2=
EXTT3=
EXTT4=
EXTT5=
EXTT6=
EXTT7=
EXTT8=
EXTT9=
EXTT10=
EXTT11=
EXTT12=
PLAYORDER=
